<svg xmlns="http://www.w3.org/2000/svg" viewBox="0 0 100 100"><defs><style>.cls-1{fill:#303231;}.cls-2{fill:#fff;}</style></defs><title>BRKR</title><g id="Layer_5" data-name="Layer 5"><circle class="cls-1" cx="50" cy="50" r="41.98"/><path class="cls-2" d="M93.93,50a43.93,43.93,0,1,0-73.6,32.36l0,0,1.42,1.2c.09.08.2.14.29.22.75.62,1.54,1.22,2.34,1.79l.78.57c.86.58,1.73,1.14,2.63,1.66l.58.35c1,.55,2,1.08,3,1.56l.23.11a44.43,44.43,0,0,0,10.62,3.36l.3,0c1.15.2,2.32.36,3.51.46l.43,0c1.18.1,2.37.16,3.58.16s2.38-.06,3.55-.16l.44,0c1.18-.11,2.34-.26,3.48-.46l.31,0a43.2,43.2,0,0,0,10.46-3.29l.37-.16c1-.47,2-1,2.89-1.5l.71-.4c.85-.51,1.71-1,2.52-1.6.3-.2.59-.42.88-.63.7-.5,1.39-1,2-1.57.15-.11.32-.22.47-.34l1.45-1.22,0,0A43.79,43.79,0,0,0,93.93,50ZM56.77,90.16l-.16,0-.09,0h-.09c-.91.14-1.84.25-2.77.34h-.13l-.54,0h-.14c-.94.06-1.89.11-2.85.11h0c-1,0-2,0-3-.12h0c-1.16-.08-2.31-.21-3.44-.39h-.09l-.13,0-.16,0A40.73,40.73,0,0,1,12.13,65l-.06-.16c-.23-.58-.45-1.16-.65-1.76,0-.09-.06-.19-.1-.29-.18-.55-.34-1.1-.5-1.66l-.12-.42c-.14-.52-.27-1-.39-1.57,0-.18-.09-.35-.12-.53-.11-.5-.21-1-.29-1.51,0-.2-.08-.4-.11-.6-.08-.5-.14-1-.21-1.49,0-.22-.05-.44-.08-.65-.05-.52-.09-1-.12-1.55,0-.2,0-.41-.05-.62,0-.71-.06-1.44-.06-2.17h0A40.74,40.74,0,0,1,50,9.27h0A40.74,40.74,0,0,1,90.73,50q0,1.09-.06,2.19c0,.2,0,.39,0,.59,0,.53-.07,1.06-.13,1.58,0,.21,0,.42-.07.62-.07.52-.13,1-.22,1.53,0,.2-.06.38-.1.58q-.13.78-.3,1.56c0,.16-.07.32-.11.48-.13.55-.26,1.1-.41,1.65,0,.11-.07.23-.1.35-.17.59-.35,1.18-.54,1.76l-.07.2c-.22.64-.45,1.28-.7,1.91h0A40.76,40.76,0,0,1,56.77,90.16Z"/></g></svg>