<svg id="Layer_1" data-name="Layer 1" xmlns="http://www.w3.org/2000/svg" viewBox="0 0 612 792"><defs><style>.cls-1{fill:#fff;}</style></defs><title>buddhist-yoga-pose</title><path d="M216.75,588.75c-2.88-.74-5.8-1.34-8.63-2.24-8.65-2.74-15.13-8.07-18.94-16.4-4.07-8.89-2.59-17.09,3.53-24.46,6.4-7.71,15.27-11.14,24.69-13.06,10-2,20.15-3.57,30.25-5.2,5.52-.89,9.14-4.13,12-8.67,6-9.55,7.89-20.1,7.74-31.16-.38-27.38-6-53.82-15-79.52-6.37-18.06-9.54-36.73-11.48-55.61-1.54-15-2-30.16-3.15-45.23a15.82,15.82,0,0,1,4.89-12.84c12.57-12.86,24.91-26,37.78-38.51,10.71-10.44,18.42-22.28,20.66-37.26.37-2.45,0-5,.45-7.46a42,42,0,0,1,2.23-6.38h6c.77,1.87,2.24,3.75,2.22,5.62-.19,16.3,6.1,29.87,17.22,41.37q20.18,20.85,40.65,41.42a19.54,19.54,0,0,1,6,15.44c-1,28.12-3.17,56.12-9.92,83.51-3.37,13.65-8.47,26.87-12.08,40.48-5.55,21-8.76,42.3-7.26,64.08.63,9.26,3.55,17.92,9.68,25.07a14.61,14.61,0,0,0,7.25,4.74c9.49,2.1,19.21,3.15,28.65,5.38a91.54,91.54,0,0,1,20.37,7c8.75,4.45,14.38,12.07,14,22.24s-6,18-15,22.66c-4.56,2.36-9.81,3.36-14.75,5h-13.5a29.06,29.06,0,0,0-2.86-.7c-8.28-1.18-16.61-2.1-24.84-3.54-19.26-3.37-38.63-5.6-58.16-4.15-14.91,1.11-29.75,3.23-44.6,5.06-7.54.93-15,2.21-22.54,3.33Z"/><path d="M306.72,249.74c-4.07,5.31-8.13,10.06-11.57,15.23q-13.77,20.7-27.07,41.73a21,21,0,0,0-3.29,15c2,11.66,3.75,23.37,6.27,34.91a37.5,37.5,0,0,0,10.65,18.64c4.64,4.58,8.68,3.38,10.65-3.1a33.42,33.42,0,0,1-12.26-17.85,59.92,59.92,0,0,1,.36-32.9c2.08-7.34,7.17-12.33,14.59-13.52a72,72,0,0,1,20.41-.64c11.1,1.43,16.93,7.35,18.7,18.43,2.78,17.5,2.25,34.33-13.16,46.72,2.82,6.62,6.79,7.67,11.16,2.32,3.65-4.47,7.27-9.5,9-14.89,3-9.45,4.73-19.33,6.76-29.08,2.25-10.84.24-20.79-5.59-30.41A504.56,504.56,0,0,0,306.72,249.74Z"/><path class="cls-1" d="M230.25,588.75c7.51-1.12,15-2.4,22.54-3.33,14.85-1.83,29.69-3.95,44.6-5.06,19.53-1.45,38.9.78,58.16,4.15,8.23,1.44,16.56,2.36,24.84,3.54a29.06,29.06,0,0,1,2.86.7Z"/><path class="cls-1" d="M306.72,249.74a504.56,504.56,0,0,1,35.61,50.63c5.83,9.62,7.84,19.57,5.59,30.41-2,9.75-3.73,19.63-6.76,29.08-1.73,5.39-5.35,10.42-9,14.89-4.37,5.35-8.34,4.3-11.16-2.32,15.41-12.39,15.94-29.22,13.16-46.72-1.77-11.08-7.6-17-18.7-18.43a72,72,0,0,0-20.41.64c-7.42,1.19-12.51,6.18-14.59,13.52a59.92,59.92,0,0,0-.36,32.9,33.42,33.42,0,0,0,12.26,17.85c-2,6.48-6,7.68-10.65,3.1a37.5,37.5,0,0,1-10.65-18.64c-2.52-11.54-4.26-23.25-6.27-34.91a21,21,0,0,1,3.29-15q13.32-21,27.07-41.73C298.59,259.8,302.65,255.05,306.72,249.74Z"/></svg>